<?xml version="1.0" encoding="UTF-8"?>
<svg xmlns="http://www.w3.org/2000/svg" viewBox="-80 -190 1010 1010" role="img" aria-labelledby="title">
  <title id="title">Petal Booth</title>
  <rect x="-80" y="-190" width="1010" height="1010" rx="230" fill="#8765a9"/>
  <path fill="#fff" d="M845.7,519.15c-35.88-42.12-64.29-86.8-85.07-137.87-24.37-59.89-20.99-123.26,10.63-181.46,10.92-20.1,25.09-35.32,32.21-58.6-37.21,21.16-68.75,41.61-105.52,56.8-98.55,40.69-159.03-11.13-237.81-65.37,17.28,37.81,36.58,67.46,49.48,104.01,26.75,75.78,6.99,161.24-53.35,213.66-23.11,20.07-51.05,22.86-74.48,3.07-46.33-39.13-62.4-117.87-51.3-177.56,31.11-167.26,199.09-247.66,330.06-228.55l108.15,15.78C691.55,3.43,564.06-10.63,472.08,7.2,358.17,29.29,204.75,119.1,119.66,195.54l-66.74,59.96L3.36,301.98c-3.44,3.22-5,11.86-.97,15.93,59.08,59.62,118.61,116.54,187.08,165.59,105.73,75.74,225.2,130.47,355.06,144.47,36.62,3.95,71.5.68,107.74-2.85,46.14-4.5,89.5-19.57,130.99-38.8,24.14-11.19,44.36-25.54,62.45-44.39,6.62-6.9,6.16-15.52-.02-22.77ZM728.67,532.57c-64.68,51.15-171.19,52.99-234.81,3.38-14.23-11.1-17.19-26.97-6.34-42.17,16.69-23.39,40.13-38.78,67.06-49.81,58.6-24,124.06-20.49,175.77,16.71,10.05,7.23,23.67,17.56,24.15,30.42.62,16.54-12.9,31.25-25.82,41.47Z"/>
</svg>
